<svg width="24" height="24" viewBox="0 0 24 24" fill="none" xmlns="http://www.w3.org/2000/svg">
  <path d="M23.071 8.409c-.553-2.64-2.333-4.915-4.773-6.103C16.851 1.218 15.264.714 13.643.714c-1.621 0-3.208.504-4.655 1.592C6.548 3.494 4.768 5.769 4.215 8.409c-.277 1.32-.138 2.686.4 3.943.539 1.257 1.416 2.34 2.533 3.127l.4.283c.831.587 1.8.9 2.795.9h.4c.995 0 1.964-.313 2.795-.9l.4-.283c1.117-.787 1.994-1.87 2.533-3.127.538-1.257.677-2.623.4-3.943z" fill="#FF3008"/>
  <path d="M12 16.5c-2.485 0-4.5-2.015-4.5-4.5S9.515 7.5 12 7.5s4.5 2.015 4.5 4.5-2.015 4.5-4.5 4.5z" fill="white"/>
  <path d="M12 14.5c-1.381 0-2.5-1.119-2.5-2.5S10.619 9.5 12 9.5s2.5 1.119 2.5 2.5-1.119 2.5-2.5 2.5z" fill="#FF3008"/>
</svg>